# xmcd CD database file
#
# Track frame offsets:
#	150
#	27360
#	41090
#	61058
#	77083
#	96742
#	120055
#	146218
#	164405
#	178390
#	205868
#	232043
#	248170
#
# Disc length: 3661 seconds
#
# Revision: 0
# Processed by: cddbd v1.5.2PL0 Copyright (c) Steve Scherf et al.
# Submitted via: CDex 1.51
#
DISCID=b80e4b0d
DTITLE=Andy J. FOREST Band - Real Stories
DYEAR=2007
DGENRE=Blues
TTITLE0=Let 'em Die
TTITLE1=Gonna Getcha
TTITLE2=Trailerless Man
TTITLE3=Swing Is Everything
TTITLE4=Breach In The Levee
TTITLE5=4-20 AM
TTITLE6=Stinkin' Lincoln
TTITLE7=Lithium For Art
TTITLE8=Strollin' With Bone In New Orleans
TTITLE9=Eddie and Betty
TTITLE10=Last Words
TTITLE11=Pick Yourself Up
TTITLE12=Maintenant
EXTD=YEAR: 2007
EXTT0=
EXTT1=
EXTT2=
EXTT3=
EXTT4=
EXTT5=
EXTT6=
EXTT7=
EXTT8=
EXTT9=
EXTT10=
EXTT11=
EXTT12=
PLAYORDER=
